<svg xmlns="http://www.w3.org/2000/svg" xmlns:xlink="http://www.w3.org/1999/xlink" version="1.1" x="0px" y="0px" viewBox="0 0 100 125" enable-background="new 0 0 100 100" xml:space="preserve">
	<g>
		<circle cx="19.136" cy="16.819" r="2.206" fill="white"/>
		<circle cx="82.104" cy="16.819" r="2.206" fill="white"/>
		<circle cx="88.233" cy="58.173" r="2.206" fill="white"/>
		<circle cx="50.994" cy="72.597" r="2.206" fill="white"/>
		<circle cx="23.29" cy="56.119" r="2.206" fill="white"/>
		<circle cx="48.309" cy="35.912" r="2.206" fill="white"/>
		<rect x="52.695" y="12.147" transform="matrix(0.8968 0.4424 -0.4424 0.8968 11.7183 -22.6228)" width="3.327" height="3.327" fill="white"/>
		<polygon points="78.61,43.086 80.119,47.564 83.24,44.018" fill="white"/>
		<polygon points="45.807,21.112 41.375,22.753 45.013,25.768" fill="white"/>
		<polygon points="10.539,40.316 9.561,44.939 14.052,43.473" fill="white"/>
		<polygon points="38.87,91.587 43.569,92.084 41.649,87.769" fill="white"/>
		<rect x="72.393" y="24.666" transform="matrix(0.4024 0.9154 -0.9154 0.4024 72.5433 -48.4531)" width="1.987" height="13.35" fill="white"/>
		<rect x="32.894" y="7.938" transform="matrix(0.9635 0.2678 -0.2678 0.9635 5.1505 -8.5406)" width="1.988" height="13.351" fill="white"/>
		<rect x="29.959" y="67.071" transform="matrix(0.6004 0.7997 -0.7997 0.6004 69.0728 -2.0971)" width="13.351" height="1.989" fill="white"/>
		<rect x="64.962" y="65.354" transform="matrix(-0.9511 -0.3089 0.3089 -0.9511 119.2773 151.5778)" width="13.351" height="1.986" fill="white"/>
		<path d="M32.128,41.408c0,0,0.642-1.873-2.029-2.284c-2.672-0.41-5.02-3.813-5.02-3.813l-1.635,1.876c0,0,2.347,3.403,5.019,3.813   c2.671,0.411,2.029,2.284,2.029,2.284L32.128,41.408z" fill="white"/>
		<path d="M57.88,47.252c-2.952-1.079-3.522,2.854-3.522,2.854l1.766,2.788c0,0,0.57-3.935,3.522-2.855   c2.951,1.079,3.843,1.081,4.384-1.927l-1.766-2.787C61.723,48.333,60.83,48.331,57.88,47.252z" fill="white"/>
		<rect x="44.439" y="53.386" transform="matrix(-0.3647 -0.9311 0.9311 -0.3647 11.6571 118.0532)" width="3.326" height="3.328" fill="white"/>
		<rect x="19.42" y="66.401" transform="matrix(-0.8045 -0.594 0.594 -0.8045 -2.3872 135.3421)" width="3.327" height="3.326" fill="white"/>
		<rect x="82.647" y="84.489" transform="matrix(-0.9995 -0.0326 0.0326 -0.9995 165.7675 175.0057)" width="3.326" height="3.326" fill="white"/>
		<path d="M70.93,80.816c-1.722,1.03-2.678-0.14-2.678-0.14l0.093,2.221c0,0,0.956,1.171,2.678,0.14   c1.722-1.029,2.598-4.193,4.018-1.579l-0.093-2.222C73.527,76.623,72.65,79.786,70.93,80.816z" fill="white"/>
		<path d="M14.001,82.266c-0.943,1.283-2.195,0.992-2.195,0.992l2.458,1.805c0,0,1.251,0.293,2.194-0.99s5.595,0.698,5.595,0.698   l-2.461-1.809C19.592,82.962,14.944,80.981,14.001,82.266z" fill="white"/>
	</g>
</svg>