<?xml version="1.0" encoding="utf-8"?>
<!-- Generator: Adobe Illustrator 22.0.1, SVG Export Plug-In . SVG Version: 6.00 Build 0)  -->
<svg version="1.1" id="Laag_1" xmlns="http://www.w3.org/2000/svg" xmlns:xlink="http://www.w3.org/1999/xlink" x="0px" y="0px"
	 viewBox="0 0 364.2 70.5" enable-background="new 0 0 364.2 70.5" xml:space="preserve">
<g>
	<path fill="#FFFFFF" d="M12,14.2h19.8c11.6,0,19.1,6,19.1,16.1v0.1c0,10.9-8.4,16.6-19.7,16.6h-6.4v13.2H12V14.2z M30.9,37.1
		c4.5,0,7.3-2.4,7.3-6.1v-0.1c0-3.9-2.8-6-7.4-6h-6.1v12.2H30.9z"/>
	<path fill="#FFFFFF" d="M56.3,14.2h21.8c7,0,11.9,1.8,15,4.9c2.7,2.7,4.1,6.2,4.1,10.7v0.1c0,7.1-3.8,11.8-9.5,14.2l11,16.1H84
		l-9.3-13.9H69v13.9H56.3V14.2z M77.5,36.3c4.3,0,6.8-2.1,6.8-5.5v-0.1c0-3.7-2.7-5.5-6.9-5.5H69v11.1H77.5z"/>
	<path fill="#FFFFFF" d="M103.6,14.2h37V25h-24.4v7h22.1v10.1h-22.1v7.3H141v10.9h-37.4V14.2z"/>
	<path fill="#FFFFFF" d="M147.5,14.2H161L172,32l11-17.8h13.5v46.1h-12.7V33.8l-11.8,18h-0.3l-11.7-18v26.4h-12.5V14.2z"/>
	<path fill="#FFFFFF" d="M205,14.2h12.8v46.1H205V14.2z"/>
	<path fill="#FFFFFF" d="M225.7,40.1V14.2h12.9v25.6c0,6.6,3.4,9.8,8.5,9.8c5.2,0,8.6-3,8.6-9.5V14.2h12.9v25.5
		c0,14.8-8.5,21.4-21.6,21.4S225.7,54.5,225.7,40.1z"/>
	<path fill="#FFFFFF" d="M276.1,14.2h13.5l11,17.8l11-17.8H325v46.1h-12.7V33.8l-11.8,18h-0.3l-11.7-18v26.4H276v-46H276.1z"/>
	<g>
		<path fill="#FFFFFF" d="M358.3,15.5c0,0.2-0.1,0.5-0.4,0.8l-5.8,5.7l1.4,8c0,0.1,0,0.2,0,0.3c0,0.2-0.1,0.4-0.2,0.6
			s-0.3,0.2-0.5,0.2s-0.4-0.1-0.6-0.2l-7.2-3.8l-7.2,3.8c-0.2,0.1-0.4,0.2-0.6,0.2s-0.4-0.1-0.5-0.2c-0.1-0.2-0.2-0.3-0.2-0.6
			c0-0.1,0-0.2,0-0.3l1.4-8l-5.8-5.7c-0.3-0.3-0.4-0.5-0.4-0.8c0-0.4,0.3-0.6,0.9-0.7l8.1-1.2l3.6-7.3c0.2-0.4,0.5-0.7,0.8-0.7
			s0.6,0.2,0.8,0.7l3.6,7.3l8.1,1.2C358,14.9,358.3,15.1,358.3,15.5z"/>
	</g>
</g>
</svg>
