<svg version="1" xmlns="http://www.w3.org/2000/svg" width="346.667" height="346.667" viewBox="0 0 260.000000 260.000000"><path d="M121.8 25c-51 4.6-80.7 21.5-88.4 50.3-1.8 7-1.8 24.8.1 32.1 4 15.2 12.9 26 28 33.8 11.1 5.7 16.5 7.3 47.4 14.3 13.3 3 26.3 6.4 28.8 7.5 3.9 1.7 4.4 2.3 4.1 4.7-.7 5.8-10.6 8.3-33.9 8.3-16.4 0-41.3-2.1-59.7-5-18.1-2.9-16.2-4.4-16.2 12.3v14.3l21.8 2.2c54.5 5.5 78.5 5.7 98.7.7 15.7-3.9 28.8-14.1 32-24.7 3.2-11 1.1-20.4-5.9-26.6-7.6-6.7-15.4-9.5-49.6-18.1-25.6-6.4-35.9-10.1-44.3-16.1-12.9-9.3-16.9-24.2-10.3-38.5 5.3-11.4 19-20.1 40.3-25.6 14.5-3.7 50.1-2.2 87.1 3.5 10.3 1.6 14.5 1.9 14.8 1.1.3-.6.3-6.3.2-12.6l-.3-11.4-9.5-1.6c-26-4.5-64.7-6.8-85.2-4.9z"/><path d="M122 53.9c-12.2 1.7-29.8 9.3-37.2 15.9-7.8 7-10.7 18-7.6 28.6 1.7 5.7 9.8 13.5 17.8 17.4 9 4.2 16.3 6.5 39.5 12.1 29.6 7.3 39.3 11.1 47.2 18.4 6.7 6.2 8.7 10.7 8.6 19.7-.2 25.8-22.5 40.6-64.6 42.7-15.5.7-69.4-3-89.9-6.3l-3.8-.6v14.1c0 7.8.1 14.1.3 14.1.1 0 6.5.9 14.2 2 21.8 3 44.1 4.3 64 3.6 59-2.1 85.7-8.6 103.2-24.9 11.3-10.6 14.9-21.2 14-41.7-.8-20.7-7.2-34.2-21.2-44.7-12.4-9.4-20.8-12.4-55.6-20.3-25.2-5.7-30.3-7.3-32.8-10.4-1.1-1.3-1.1-2 .2-4 3-4.5 7.1-5.1 34.7-4.9 20.9.1 28.8.6 44 2.6 10.2 1.4 18.8 2.3 19.3 2 1-.6.9-27.1-.1-27.7-1.2-.7-24.1-4.2-40.2-6.1-15.8-1.8-46.1-2.7-54-1.6z"/></svg>